<svg width="0" height="0" class="hidden">
  <symbol xmlns="http://www.w3.org/2000/svg" viewBox="0 0 23 22" id="search-icon">
    <path d="M22.4781 20.4478L16.9395 14.9807C18.4489 13.1586 19.1909 10.8335 19.0123 8.48647C18.8336 6.13941 17.7479 3.94992 15.9797 2.37087C14.2115 0.791825 11.8961 -0.0559616 9.51241 0.00286919C7.12871 0.0617 4.85911 1.02265 3.17306 2.68695C1.487 4.35124 0.513495 6.59156 0.453895 8.9445C0.394296 11.2974 1.25316 13.583 2.85285 15.3284C4.45254 17.0738 6.67065 18.1455 9.04839 18.3218C11.4261 18.4982 13.7816 17.7656 15.6275 16.2758L21.1661 21.7429C21.3411 21.9097 21.5755 22.0021 21.8187 22C22.062 21.9979 22.2948 21.9016 22.4668 21.7317C22.6388 21.5619 22.7364 21.3322 22.7385 21.092C22.7407 20.8519 22.6471 20.6205 22.4781 20.4478ZM9.75956 16.5158C8.29141 16.5158 6.85623 16.086 5.63551 15.2809C4.41478 14.4758 3.46335 13.3314 2.90151 11.9925C2.33968 10.6536 2.19267 9.18033 2.47909 7.75897C2.76552 6.33761 3.4725 5.03201 4.51064 4.00726C5.54877 2.98252 6.87144 2.28466 8.31138 2.00194C9.75132 1.71921 11.2439 1.86432 12.6003 2.4189C13.9566 2.97349 15.116 3.91265 15.9316 5.11762C16.7473 6.32259 17.1827 7.73925 17.1827 9.18846C17.1804 11.1311 16.3977 12.9936 15.006 14.3672C13.6144 15.7409 11.7276 16.5136 9.75956 16.5158Z" fill="#EC762A"></path>
  </symbol>
  <symbol xmlns="http://www.w3.org/2000/svg" viewBox="0 0 24 24" id="shopping-cart">
    <g clip-path="url(#clip0_5:2)">
      <path d="M22.713 4.077C22.4317 3.73944 22.0796 3.46795 21.6815 3.28182C21.2835 3.09568 20.8494 2.99946 20.41 3H4.242L4.2 2.649C4.11405 1.91942 3.76338 1.24673 3.21449 0.758478C2.6656 0.270223 1.95663 0.000341793 1.222 0L1 0C0.734784 0 0.48043 0.105357 0.292893 0.292893C0.105357 0.48043 0 0.734784 0 1C0 1.26522 0.105357 1.51957 0.292893 1.70711C0.48043 1.89464 0.734784 2 1 2H1.222C1.46693 2.00003 1.70334 2.08996 1.88637 2.25272C2.06941 2.41547 2.18634 2.63975 2.215 2.883L3.591 14.583C3.73385 15.7998 4.31848 16.9218 5.23391 17.736C6.14934 18.5502 7.33185 19 8.557 19H19C19.2652 19 19.5196 18.8946 19.7071 18.7071C19.8946 18.5196 20 18.2652 20 18C20 17.7348 19.8946 17.4804 19.7071 17.2929C19.5196 17.1054 19.2652 17 19 17H8.557C7.93806 16.9983 7.3348 16.8051 6.82994 16.4471C6.32507 16.089 5.94331 15.5835 5.737 15H17.657C18.8293 15.0001 19.9643 14.5882 20.8638 13.8364C21.7633 13.0846 22.37 12.0407 22.578 10.887L23.363 6.533C23.4414 6.10101 23.4237 5.65707 23.3114 5.23264C23.1991 4.80821 22.9948 4.41368 22.713 4.077V4.077ZM21.4 6.178L20.614 10.532C20.4891 11.225 20.1245 11.852 19.5839 12.3032C19.0433 12.7544 18.3612 13.0011 17.657 13H5.419L4.478 5H20.41C20.5569 4.99912 20.7022 5.03062 20.8355 5.09226C20.9689 5.15389 21.087 5.24415 21.1815 5.35661C21.276 5.46907 21.3446 5.60097 21.3824 5.74294C21.4201 5.8849 21.4262 6.03344 21.4 6.178V6.178Z" fill="white" />
      <path d="M7.00012 24.0006C8.10469 24.0006 9.00011 23.1052 9.00011 22.0006C9.00011 20.8961 8.10469 20.0006 7.00012 20.0006C5.89555 20.0006 5.00012 20.8961 5.00012 22.0006C5.00012 23.1052 5.89555 24.0006 7.00012 24.0006Z" fill="white" />
      <path d="M17 24.0006C18.1046 24.0006 19 23.1052 19 22.0006C19 20.8961 18.1046 20.0006 17 20.0006C15.8954 20.0006 15 20.8961 15 22.0006C15 23.1052 15.8954 24.0006 17 24.0006Z" fill="white" />
    </g>
    <defs>
      <clipPath id="clip0_5:2">
        <rect width="24" height="24" fill="white" />
      </clipPath>
    </defs>
  </symbol>
  <symbol xmlns="http://www.w3.org/2000/svg" viewBox="0 0 20 22" id="trash">
    <path d="M1 5H3M3 5H19M3 5V19C3 19.5304 3.21071 20.0391 3.58579 20.4142C3.96086 20.7893 4.46957 21 5 21H15C15.5304 21 16.0391 20.7893 16.4142 20.4142C16.7893 20.0391 17 19.5304 17 19V5H3ZM6 5V3C6 2.46957 6.21071 1.96086 6.58579 1.58579C6.96086 1.21071 7.46957 1 8 1H12C12.5304 1 13.0391 1.21071 13.4142 1.58579C13.7893 1.96086 14 2.46957 14 3V5M8 10V16M12 10V16" stroke="#F37321" stroke-width="2" stroke-linecap="round" stroke-linejoin="round"></path>
  </symbol>
</svg>