<svg width="0" height="0" class="hidden">
  <symbol fill="none" xmlns="http://www.w3.org/2000/svg" viewBox="0 0 18 18" id="inst">
    <path d="M12.0648 0.466797H5.73859C2.82751 0.466797 0.466797 2.82751 0.466797 5.73859V12.0648C0.466797 14.9758 2.82751 17.3365 5.73859 17.3365H12.0648C14.9758 17.3365 17.3365 14.9758 17.3365 12.0648V5.73859C17.3365 2.82751 14.9758 0.466797 12.0648 0.466797ZM15.755 12.0648C15.755 14.0997 14.0997 15.755 12.0648 15.755H5.73859C3.70368 15.755 2.04834 14.0997 2.04834 12.0648V5.73859C2.04834 3.70368 3.70368 2.04834 5.73859 2.04834H12.0648C14.0997 2.04834 15.755 3.70368 15.755 5.73859V12.0648Z" fill="black"></path>
    <path d="M8.90152 4.68408C6.57244 4.68408 4.68408 6.57244 4.68408 8.90152C4.68408 11.2306 6.57244 13.119 8.90152 13.119C11.2306 13.119 13.119 11.2306 13.119 8.90152C13.119 6.57244 11.2306 4.68408 8.90152 4.68408ZM8.90152 11.5374C7.44861 11.5374 6.26562 10.3544 6.26562 8.90152C6.26562 7.44756 7.44861 6.26562 8.90152 6.26562C10.3544 6.26562 11.5374 7.44756 11.5374 8.90152C11.5374 10.3544 10.3544 11.5374 8.90152 11.5374Z" fill="black"></path>
    <path d="M13.4355 4.9301C13.7459 4.9301 13.9975 4.6785 13.9975 4.36813C13.9975 4.05776 13.7459 3.80615 13.4355 3.80615C13.1251 3.80615 12.8735 4.05776 12.8735 4.36813C12.8735 4.6785 13.1251 4.9301 13.4355 4.9301Z" fill="black"></path>
  </symbol>
  <symbol fill="none" xmlns="http://www.w3.org/2000/svg" viewBox="0 0 17 14" id="tg">
    <path d="M7.11017 8.96745L6.84861 12.7514C7.22283 12.7514 7.3849 12.5861 7.57926 12.3875L9.33375 10.6629L12.9692 13.4013C13.636 13.7835 14.1057 13.5822 14.2856 12.7704L16.6719 1.26942L16.6726 1.26874C16.884 0.254987 16.3161 -0.141434 15.6665 0.107261L1.63983 5.63073C0.682532 6.01292 0.697027 6.56182 1.47709 6.81051L5.06315 7.95776L13.3929 2.59692C13.7849 2.32993 14.1413 2.47766 13.8481 2.74465L7.11017 8.96745Z" fill="black"></path>
  </symbol>
  <symbol fill="none" xmlns="http://www.w3.org/2000/svg" viewBox="0 0 16 9" id="vk">
    <path d="M13.2771 5.16086C13.0185 4.84586 13.0925 4.70571 13.2771 4.42414C13.2805 4.42093 15.4159 1.57564 15.6359 0.610714L15.6372 0.610071C15.7465 0.258428 15.6372 0 15.1085 0H13.3591C12.9138 0 12.7084 0.221786 12.5984 0.469929C12.5984 0.469929 11.7077 2.52579 10.4477 3.85843C10.041 4.2435 9.85301 4.36693 9.631 4.36693C9.52166 4.36693 9.35166 4.2435 9.35166 3.89186V0.610071C9.35166 0.188357 9.22699 0 8.85831 0H6.10754C5.8282 0 5.6622 0.196714 5.6622 0.379929C5.6622 0.779786 6.29222 0.871714 6.35755 1.99671V4.43764C6.35755 4.9725 6.25688 5.07086 6.03354 5.07086C5.43886 5.07086 3.99547 3.00664 3.14011 0.644143C2.96744 0.185786 2.79876 0.000642811 2.35008 0.000642811H0.600021C0.10067 0.000642811 0 0.222428 0 0.470571C0 0.909 0.594687 3.08893 2.76543 5.96893C4.21215 7.93479 6.24955 9 8.10295 9C9.21699 9 9.35299 8.76343 9.35299 8.3565C9.35299 6.47807 9.25232 6.30064 9.81034 6.30064C10.069 6.30064 10.5144 6.42407 11.5544 7.37229C12.7431 8.49664 12.9384 9 13.6038 9H15.3532C15.8519 9 16.1046 8.76343 15.9592 8.29671C15.6265 7.31507 13.3785 5.29586 13.2771 5.16086Z" fill="black"></path>
  </symbol>
</svg>